<svg width="12" height="10" viewBox="0 0 12 10" fill="none" xmlns="http://www.w3.org/2000/svg">
<path d="M0.392578 1.15659V9.0884C0.392578 9.48499 0.672486 9.74938 1.09235 9.74938H10.8891C11.309 9.74938 11.5889 9.48499 11.5889 9.0884V1.15659C11.5889 0.759999 11.309 0.495605 10.8891 0.495605H1.09235C0.672486 0.495605 0.392578 0.76066 0.392578 1.15659ZM1.79212 5.78348H5.29096V8.42742H1.79212V5.78348ZM6.6905 8.42742V5.78348H10.1893V8.42742H6.6905ZM10.1893 4.46151H6.6905V1.81757H10.1893V4.46151ZM5.29096 1.81757V4.46151H1.79212V1.81757H5.29096Z" fill="url(#paint0_linear_9056_81)"/>
<defs>
<linearGradient id="paint0_linear_9056_81" x1="2.45739" y1="1.48268" x2="9.33377" y2="1.69662" gradientUnits="userSpaceOnUse">
<stop stop-color="#DC3E88"/>
<stop offset="0.418735" stop-color="#B840AE"/>
<stop offset="1" stop-color="#843FE8"/>
</linearGradient>
</defs>
</svg>
